HIERARCHY
ROOT Pelvis
{
	OFFSET 0.000000 0.000000 0.000000
	CHANNELS 6 Xposition Yposition Zposition Zrotation Yrotation Xrotation 
	JOINT Left_hip
	{
		OFFSET 0.070241 -0.085575 -0.010474
		CHANNELS 3 Zrotation Yrotation Xrotation
		JOINT Left_knee
		{
			OFFSET 0.032125 -0.356873 -0.000555
			CHANNELS 3 Zrotation Yrotation Xrotation
			JOINT Left_ankle
			{
				OFFSET -0.010961 -0.370212 -0.042278
				CHANNELS 3 Zrotation Yrotation Xrotation
				JOINT Left_foot
				{
					OFFSET 0.023322 -0.052281 0.110104
					CHANNELS 3 Zrotation Yrotation Xrotation
					End Site
					{
						OFFSET 0.000000 0.000000 0.000000
					}
				}
			}
		}
	}
	JOINT Right_hip
	{
		OFFSET -0.068518 -0.084320 -0.007402
		CHANNELS 3 Zrotation Yrotation Xrotation
		JOINT Right_knee
		{
			OFFSET -0.037345 -0.364815 -0.003619
			CHANNELS 3 Zrotation Yrotation Xrotation
			JOINT Right_ankle
			{
				OFFSET 0.013394 -0.370006 -0.039954
				CHANNELS 3 Zrotation Yrotation Xrotation
				JOINT Right_foot
				{
					OFFSET -0.019600 -0.045455 0.113223
					CHANNELS 3 Zrotation Yrotation Xrotation
					End Site
					{
						OFFSET 0.000000 0.000000 0.000000
					}
				}
			}
		}
	}
	JOINT Spine1
	{
		OFFSET -0.002404 0.098129 -0.018169
		CHANNELS 3 Zrotation Yrotation Xrotation
		JOINT Spine2
		{
			OFFSET 0.003989 0.127209 -0.001742
			CHANNELS 3 Zrotation Yrotation Xrotation
			JOINT Spine3
			{
				OFFSET 0.001758 0.046641 0.023475
				CHANNELS 3 Zrotation Yrotation Xrotation
				JOINT Neck
				{
					OFFSET -0.003759 0.194901 -0.039982
					CHANNELS 3 Zrotation Yrotation Xrotation
					JOINT Head
					{
						OFFSET 0.003999 0.063756 0.047665
						CHANNELS 3 Zrotation Yrotation Xrotation
						End Site
						{
							OFFSET 0.000000 0.000000 0.000000
						}
					}
				}
				JOINT Left_collar
				{
					OFFSET 0.071816 0.109048 -0.028973
					CHANNELS 3 Zrotation Yrotation Xrotation
					JOINT Left_shoulder
					{
						OFFSET 0.084027 0.032269 -0.006525
						CHANNELS 3 Zrotation Yrotation Xrotation
						JOINT Left_elbow
						{
							OFFSET 0.243854 -0.013992 -0.025905
							CHANNELS 3 Zrotation Yrotation Xrotation
							JOINT Left_wrist
							{
								OFFSET 0.232156 0.008196 -0.000339
								CHANNELS 3 Zrotation Yrotation Xrotation
								JOINT Left_palm
								{
									OFFSET 0.075377 -0.009461 -0.012494
									CHANNELS 3 Zrotation Yrotation Xrotation
									End Site
									{
										OFFSET 0.000000 0.000000 0.000000
									}
								}
							}
						}
					}
				}
				JOINT Right_collar
				{
					OFFSET -0.073768 0.107001 -0.033755
					CHANNELS 3 Zrotation Yrotation Xrotation
					JOINT Right_shoulder
					{
						OFFSET -0.086837 0.032868 -0.009431
						CHANNELS 3 Zrotation Yrotation Xrotation
						JOINT Right_elbow
						{
							OFFSET -0.236446 -0.012544 -0.018747
							CHANNELS 3 Zrotation Yrotation Xrotation
							JOINT Right_wrist
							{
								OFFSET -0.236110 0.006124 -0.004327
								CHANNELS 3 Zrotation Yrotation Xrotation
								JOINT Right_palm
								{
									OFFSET -0.074800 -0.006875 -0.009610
									CHANNELS 3 Zrotation Yrotation Xrotation
									End Site
									{
										OFFSET 0.000000 0.000000 0.000000
									}
								}
							}
						}
					}
				}
			}
		}
	}
}
MOTION
Frames: 10
Frame Time: 0.100000
0.000000 0.000000 0.000000 177.689338 21.200042 -8.093064 1.018164 5.347738 -0.610189 1.013955 -6.252564 -6.364653 -2.770284 24.039837 0.001853 7.938347 -4.120912 -0.798447 -0.140580 -7.500228 -0.365642 -1.581603 2.338528 -2.780594 -0.829071 -24.096183 -2.394481 4.779337 6.280082 7.506873 -0.545870 2.247129 -0.101265 0.709150 -1.886894 -6.798630 -0.963352 1.722113 1.644488 -1.837136 -3.852184 10.005162 1.404757 0.191439 9.181654 -3.965891 14.690038 -10.355809 -2.880354 -16.283894 -11.616762 4.641815 9.538806 -4.042533 2.894210 -3.333271 30.354218 0.020058 -6.093306 0.583218 7.498554 -10.904315 -8.711594 1.908150 10.939092 -16.758487 -11.531089 -10.056665 -8.660734 -6.750993 1.490552 29.559097 6.779842 8.321913 -2.575351 
0.000121 -0.000006 -0.000118 177.682888 21.185392 -8.181072 1.037488 5.356348 -0.488311 1.019613 -6.251348 -6.430730 -2.707897 24.043279 0.072417 7.849792 -4.073378 -0.817868 -0.149292 -7.532765 -0.275772 -1.568585 2.372100 -2.797960 -0.838853 -24.062820 -2.388034 4.816064 6.285308 7.576913 -0.567126 2.287629 -0.120847 0.682487 -1.848912 -6.779366 -0.974771 1.764451 1.705159 -1.851097 -3.799564 10.175613 1.342993 0.235192 9.330376 -4.036939 14.729870 -10.407841 -2.923066 -16.229362 -11.540247 4.554241 9.279451 -4.039402 2.959263 -3.334675 30.330844 -0.058717 -6.104626 0.535649 7.551143 -10.927951 -8.717161 1.917917 10.920807 -16.783333 -11.488235 -10.083844 -8.810357 -6.739926 1.418530 29.501253 6.839846 8.325435 -2.636990 
0.000193 0.000067 -0.000373 177.687966 21.237073 -8.274364 1.033050 5.339729 -0.442927 1.007765 -6.283761 -6.362618 -2.699187 24.039655 0.050863 7.829102 -4.060919 -0.846281 -0.172011 -7.547193 -0.222589 -1.565136 2.353691 -2.720779 -0.873492 -24.095537 -2.401982 4.853210 6.334830 7.600883 -0.568987 2.313655 -0.109221 0.626011 -1.837814 -6.753746 -0.991493 1.783082 1.765662 -1.849269 -3.751863 10.193683 1.379652 0.317109 9.290198 -4.130686 14.662327 -10.417279 -2.965374 -16.199077 -11.654155 4.653416 8.959055 -4.798989 3.034609 -3.256850 29.718431 -0.253751 -6.118957 0.559456 7.532318 -10.883389 -8.641660 2.065192 10.798441 -16.727982 -11.489912 -9.846850 -8.919537 -6.739872 1.301824 29.210634 6.940727 8.370745 -2.622399 
0.000425 0.000206 -0.000543 177.660596 21.320491 -8.411771 1.069675 5.363561 -0.337552 1.008696 -6.315751 -6.351810 -2.930724 24.091342 0.001089 8.182784 -4.234341 -1.187529 -0.154885 -7.579508 -0.107169 -1.576126 2.354256 -2.715693 -0.999051 -24.232733 -2.367209 4.933496 6.781259 7.703941 -0.590998 2.385722 -0.182705 0.518646 -1.763159 -6.479605 -1.075175 1.866264 1.687302 -1.670421 -3.762156 10.074224 1.466801 0.502451 9.433603 -4.672329 14.967094 -10.446421 -2.812643 -16.427349 -11.846949 5.431015 5.268404 -6.218757 3.587612 -3.396250 28.601257 -1.212155 -6.399200 0.313664 7.822898 -10.973571 -8.371785 2.138343 10.865748 -16.727514 -11.476461 -9.787899 -9.273569 -6.821983 1.039701 28.887836 7.231031 8.838797 -2.582280 
0.000887 0.000514 -0.000563 177.568035 21.437452 -8.594792 1.178902 5.421851 -0.162420 1.022556 -6.299724 -6.430083 -3.594184 24.284836 -0.123745 9.125157 -4.917954 -2.289799 -0.071104 -7.632738 0.043898 -1.597284 2.434124 -2.785986 -1.540772 -24.658599 -2.185546 5.643803 8.318026 8.183219 -0.643696 2.539043 -0.427338 0.315362 -1.459614 -5.835453 -1.332042 2.142739 1.443121 -1.066893 -3.657796 9.333247 1.463901 1.244960 10.212405 -5.851135 16.374808 -10.350857 -2.417040 -17.140260 -11.884641 8.376967 -7.613837 -9.929960 6.822556 -4.495673 24.101018 -3.892344 -7.063539 0.102099 8.551836 -11.629518 -7.440186 2.057774 11.326644 -16.624802 -11.185146 -9.978993 -10.228665 -8.416656 0.494474 27.332038 7.940954 10.144806 -2.154044 
0.001199 0.000491 -0.000107 177.370420 21.739927 -8.885703 1.381131 5.489359 0.120757 1.005240 -5.771501 -6.550575 -4.668603 23.923230 -0.046597 10.425929 -5.591318 -4.849532 0.062135 -7.693948 0.324621 -1.702842 2.160730 -2.892056 -1.777695 -25.045642 -2.159268 5.753821 10.896309 8.993808 -0.633505 2.661239 -0.872740 0.052678 -0.918556 -4.942008 -1.772111 2.578397 1.191101 -0.085668 -2.830895 8.283612 1.156033 2.528037 11.407725 -6.500051 19.773751 -10.443731 -4.425476 -19.189059 -10.607986 17.730928 -32.376954 -16.483712 11.589483 -6.468637 16.502632 -8.429223 -8.103501 -0.575939 8.923671 -13.632422 -6.171484 3.503613 12.990918 -16.001672 -12.175271 -9.419544 -11.583560 -10.448913 -0.416299 24.374773 9.223662 12.388448 -1.698624 
0.001483 0.000802 0.000185 176.976968 22.532510 -9.261682 1.669340 5.317941 0.219943 0.941971 -4.691960 -6.473769 -5.609574 22.390971 0.217078 11.162927 -5.106924 -8.144965 0.232864 -7.814300 0.458587 -1.749680 1.059524 -2.615094 -1.736462 -25.027561 -2.605788 5.213535 13.428551 10.416081 -0.734029 2.818738 -1.595850 -0.157787 -0.471432 -3.620596 -2.132226 2.832276 0.606832 1.065013 -1.332458 7.596933 0.863618 3.737802 12.763040 -7.223910 22.677740 -10.987571 -9.499485 -23.191097 -7.986855 50.142346 -60.707287 -45.083138 14.460103 -7.758871 6.703793 -15.292489 -10.138295 -2.838646 9.049146 -16.068471 -4.831898 7.974999 13.993764 -13.717416 -15.802419 -4.599885 -13.890759 -10.536704 -2.376731 18.645112 12.268615 15.764486 -2.176065 
0.001313 0.002148 0.000119 176.611636 23.520226 -9.739009 1.840268 5.015712 0.395873 0.890772 -3.768342 -6.448873 -6.597055 20.629527 0.429320 12.207877 -3.807071 -10.957422 0.311539 -7.757437 0.915833 -1.891978 -0.182933 -2.660281 -1.800033 -24.837804 -2.943520 4.151477 14.868788 11.715008 -0.838249 3.052695 -2.695231 -0.253753 -0.689276 -1.627791 -2.283126 2.838868 -0.606563 1.189109 0.390188 7.499885 0.978373 5.714995 15.151198 -9.802053 20.613789 -11.929568 -16.505700 -31.135796 -3.300615 118.659854 -64.630547 -109.798237 16.233227 -8.766487 0.211961 -22.582272 -13.186563 -5.579404 10.084408 -16.658700 -4.217861 13.821672 13.938692 -10.137612 -19.746901 2.546484 -16.997123 -9.626508 -4.242415 12.607424 16.958220 19.919130 -3.275232 
0.001162 0.004263 -0.000985 175.302875 23.149666 -10.595326 3.371163 6.440770 0.668302 1.036157 -4.710063 -6.255036 -4.139241 14.861003 0.941183 4.835771 1.295344 -14.752318 1.288289 -8.748969 1.132298 -2.155404 1.209914 -2.372805 1.455765 -21.373795 -3.128061 0.525382 14.371518 13.982358 -0.205062 3.891294 -3.985939 0.201229 -1.023483 0.242036 -1.594377 3.695535 -2.588412 -1.824356 -1.305290 8.375448 2.291159 7.665834 18.529339 -11.240327 9.810604 -13.663223 -31.989864 -36.920202 9.965553 155.131804 -53.882432 -143.197229 25.982953 -1.953246 -11.347918 -27.747382 -17.436485 -5.403617 10.246627 -12.675208 -4.193909 21.488992 10.207657 -4.630264 -19.107702 6.904561 -14.498070 -15.932549 -4.335738 12.043269 23.971834 25.993404 -7.628192 
0.002160 0.005153 -0.001395 175.459103 22.250086 -11.523486 3.682000 6.684209 1.818869 0.974983 -3.120173 -6.153135 -3.493727 13.202750 1.349361 3.786351 3.253359 -16.562273 1.185284 -8.523474 1.928070 -2.081107 0.440795 -2.154997 1.100500 -19.597115 -2.783068 0.753033 13.779253 13.999145 -0.673264 3.924425 -4.794120 0.806638 -1.757673 2.698118 -1.593481 3.520790 -3.632826 -2.955878 -0.083331 8.349257 1.925580 8.276960 19.928572 -11.541072 2.679469 -11.580625 -48.159968 -42.937231 22.650803 164.850121 -49.878405 -151.185772 24.628004 0.949216 -14.097872 -30.512288 -18.871899 -6.639197 12.138910 -8.532695 -2.240344 33.411113 11.585710 3.840080 -17.057790 9.852276 -6.429736 -15.314740 -6.334099 14.083860 26.775815 28.718737 -8.349263 
